<?xml version="1.0" encoding="UTF-8"?>
<svg id="Layer_1" xmlns="http://www.w3.org/2000/svg" version="1.1" viewBox="0 0 318.36 527.25">
  <!-- Generator: Adobe Illustrator 29.0.0, SVG Export Plug-In . SVG Version: 2.1.0 Build 186)  -->
  <defs>
    <style>
      .st0 {
        fill: #231f20;
      }
    </style>
  </defs>
  <path class="st0" d="M86.39,384.37c5.77,2.34,11.54,4.68,17.31,7.01.21.07,1.63.55,2.25,2.06.51,1.26.12,2.38.03,2.64-22.34,42.91-44.67,85.81-67.01,128.72-2.74,2.47-6.58,3.15-9.65,1.72-3.87-1.8-5.94-6.66-4.38-11.26,18.65-42.79,37.3-85.57,55.95-128.36.13-.3.78-1.7,2.41-2.38,1.46-.61,2.75-.25,3.11-.14Z"/>
  <path class="st0" d="M127.55,341.43c5.31,1.09,6.43-1.24,6.43-1.24,0,0,78.46-176.31,117.66-264.34,4.34,2.28,15.97-.02,15.86-8.88h0s.46-26.93-.76-58.75c.16-8.99-4.51-10.73-10.41-4.58-13.44,15.17-28.7,28.74-41.06,44.74-3.82,6.23,1.1,11.5,7.05,15.64l-115.67,264.74c-3.54,9.93,15.31,11.54,20.91,12.69Z"/>
  <path class="st0" d="M286.33,216.12c7.17-12.82-4.55-31.97-19.74-28.84-7.19-2.57-18.08-4.9-25.47-7.05-6.25-4.13-10.16,1.04-10.74,7.13,4.08,11.84,14.1,22.68,22.96,31.35,4.8,6.2,12.87,11.91,20.88,8.37,26.51,35.46,25.36,81.13-7.75,110.77-38.73,22.84-98.69,18.93-140.53,8.75-92.64-29.5-115.73-84.19-67.02-149.03,22.88-33.27,51.86-33.04,86.33-34.96,10.96-.64,24.12,4.37,21.55-3.17.61-4.28-25.15-4.75-26.66-4.91l-4.92.06c-28.91,2.36-52.27.53-77.45,18.95-180.33,133.98,108.13,305.06,228.54,188.35,44.2-56.39,41.2-88.64,0-145.77ZM235.64,189.4c-.38.27-1.08.78-1.52.53-.36-.2-.34-.8-.32-1.8.02-.82.03-1.23.32-1.41.32-.2.77,0,1.45.32.71.33,1.08.5,1.17.85.15.62-.76,1.28-1.1,1.52ZM264.02,216.71c-3.29.28-12.52-8.28-6.61-10.72.77-1.03,9.46,5.55,9.21,6.76.85,1.66-.58,4.17-2.61,3.96Z"/>
</svg>