<?xml version="1.0" encoding="UTF-8"?>
<svg id="Layer_1" xmlns="http://www.w3.org/2000/svg" version="1.1" viewBox="0 0 318.4 527.2">
  <!-- Generator: Adobe Illustrator 29.0.1, SVG Export Plug-In . SVG Version: 2.1.0 Build 192)  -->
  <defs>
    <style>
      .st0 {
        fill: #fff;
      }
    </style>
  </defs>
  <path class="st0" d="M86.4,384.4c5.8,2.3,11.5,4.7,17.3,7,.2,0,1.6.5,2.2,2.1.5,1.3.1,2.4,0,2.6-22.3,42.9-44.7,85.8-67,128.7-2.7,2.5-6.6,3.2-9.6,1.7-3.9-1.8-5.9-6.7-4.4-11.3,18.7-42.8,37.3-85.6,56-128.4.1-.3.8-1.7,2.4-2.4,1.5-.6,2.8-.2,3.1-.1h0Z"/>
  <path class="st0" d="M127.6,341.4c5.3,1.1,6.4-1.2,6.4-1.2,0,0,78.5-176.3,117.7-264.3,4.3,2.3,16,0,15.9-8.9h0s.5-26.9-.8-58.8c.2-9-4.5-10.7-10.4-4.6-13.4,15.2-28.7,28.7-41.1,44.7-3.8,6.2,1.1,11.5,7.1,15.6l-115.7,264.7c-3.5,9.9,15.3,11.5,20.9,12.7h0Z"/>
  <path class="st0" d="M286.3,216.1c7.2-12.8-4.5-32-19.7-28.8-7.2-2.6-18.1-4.9-25.5-7.1-6.2-4.1-10.2,1-10.7,7.1,4.1,11.8,14.1,22.7,23,31.4,4.8,6.2,12.9,11.9,20.9,8.4,26.5,35.5,25.4,81.1-7.8,110.8-38.7,22.8-98.7,18.9-140.5,8.8-92.6-29.5-115.7-84.2-67-149,22.9-33.3,51.9-33,86.3-35,11-.6,24.1,4.4,21.6-3.2.6-4.3-25.1-4.8-26.7-4.9h-4.9c-28.9,2.4-52.3.6-77.4,19-180.3,134,108.1,305.1,228.5,188.4,44.2-56.4,41.2-88.6,0-145.8h0ZM235.6,189.4c-.4.3-1.1.8-1.5.5-.4-.2-.3-.8-.3-1.8,0-.8,0-1.2.3-1.4.3-.2.8,0,1.4.3.7.3,1.1.5,1.2.9.1.6-.8,1.3-1.1,1.5h0ZM264,216.7c-3.3.3-12.5-8.3-6.6-10.7.8-1,9.5,5.6,9.2,6.8.9,1.7-.6,4.2-2.6,4h0Z"/>
</svg>